<?xml version="1.0" encoding="UTF-8" standalone="no"?>
<svg
   xml:space="preserve"
   viewBox="0 0 87.5 87.5"
   y="0"
   x="0"
   id="圖層_1"
   version="1.1"
   width="175"
   height="175"
   sodipodi:docname="books.svg"
   inkscape:version="1.3.1 (91b66b0783, 2023-11-16)"
   xmlns:inkscape="http://www.inkscape.org/namespaces/inkscape"
   xmlns:sodipodi="http://sodipodi.sourceforge.net/DTD/sodipodi-0.dtd"
   xmlns="http://www.w3.org/2000/svg"
   xmlns:svg="http://www.w3.org/2000/svg"
   xmlns:d="https://loading.io/stock/"><defs
     id="defs13" /><sodipodi:namedview
     id="namedview13"
     pagecolor="#ffffff"
     bordercolor="#999999"
     borderopacity="1"
     inkscape:showpageshadow="0"
     inkscape:pageopacity="0"
     inkscape:pagecheckerboard="0"
     inkscape:deskcolor="#d1d1d1"
     inkscape:zoom="2.8354982"
     inkscape:cx="87.991592"
     inkscape:cy="94.163347"
     inkscape:window-width="1920"
     inkscape:window-height="991"
     inkscape:window-x="-9"
     inkscape:window-y="-9"
     inkscape:window-maximized="1"
     inkscape:current-layer="圖層_1" /><g
     class="ldl-scale"
     id="g13"
     transform="translate(-6.2498873,-6.2509062)"><path
   fill="#333"
   d="M 80.325,47.701 A 0.74,0.74 0 0 0 79.883,47.162 L 49.94,34.609 a 0.741,0.741 0 0 0 -0.822,0.167 l -28.29,28.972 c -0.249,0.255 -0.221,0.553 -0.197,0.669 0.024,0.116 0.114,0.401 0.442,0.539 l 4.913,2.06 2.602,1.091 22.428,9.403 a 0.743,0.743 0 0 0 0.822,-0.167 L 72.369,56.317 74.34,54.299 80.129,48.37 a 0.738,0.738 0 0 0 0.196,-0.669 z"
   style="fill:#333333"
   id="path1" />
<path
   fill="#e0e0e0"
   d="M 74.97,57.408 53.714,79.176 a 3.351,3.351 0 0 1 -3.713,0.753 l -23.384,-9.804 -2.602,-1.091 -1.842,-0.772 -1.336,-0.56 c -0.408,-0.171 -0.834,-0.53 -1.228,-0.132 -0.175,0.177 -0.26,0.422 -0.322,0.663 -0.217,0.847 -0.173,1.773 -0.139,2.641 0.036,0.926 0.169,1.848 0.387,2.749 0.131,0.541 0.29,1.075 0.475,1.6 0.178,0.505 0.367,1.03 0.652,1.485 0.167,0.266 0.399,0.568 0.698,0.679 0.068,0.025 0.135,0.051 0.202,0.079 l 0.41,0.172 1.147,0.481 1.529,0.641 1.849,0.775 2.106,0.883 2.3,0.964 2.431,1.019 2.5,1.048 2.505,1.05 2.447,1.026 2.327,0.975 2.143,0.898 a 3648.545,3648.545 0 0 0 4.699,1.969 l 0.78,0.327 0.281,0.118 a 0.742,0.742 0 0 0 0.822,-0.167 L 78.089,62.762 v -8.547 l -1.147,1.174 z"
   style="fill:#e0e0e0"
   id="path2" />
<path
   d="m 82.005,50.203 a 3.364,3.364 0 0 0 0.891,-3.024 3.366,3.366 0 0 0 -1.999,-2.437 L 50.955,32.189 a 3.354,3.354 0 0 0 -3.713,0.753 l -0.421,0.431 -1.955,2.002 -3.184,3.261 -4.008,4.105 -4.427,4.534 -4.441,4.548 -4.049,4.146 -3.252,3.33 c -0.922,0.944 -1.845,1.788 -2.587,2.903 -0.511,0.767 -0.825,1.563 -1.143,2.424 a 17.888,17.888 0 0 0 -0.621,2.043 16.491,16.491 0 0 0 -0.415,2.697 c -0.125,1.819 0.069,3.65 0.542,5.41 0.377,1.401 0.858,2.836 1.789,3.974 0.443,0.542 0.915,0.948 1.567,1.175 0.178,0.062 0.351,0.147 0.525,0.22 l 3.455,1.449 5.02,2.105 5.776,2.422 5.723,2.4 4.862,2.038 3.192,1.338 0.812,0.34 a 3.355,3.355 0 0 0 3.713,-0.753 L 82.006,62.511 a 3.369,3.369 0 0 0 -1.107,-5.46 l -0.186,-0.078 v -5.442 z m -3.917,5.667 v 6.895 L 51.837,89.648 a 0.742,0.742 0 0 1 -0.822,0.167 l -0.281,-0.118 -0.78,-0.327 -1.215,-0.509 -1.587,-0.665 -1.897,-0.795 -2.143,-0.898 -2.327,-0.975 -2.447,-1.026 -2.505,-1.05 -2.5,-1.048 -2.431,-1.019 -2.3,-0.964 -2.106,-0.883 -1.849,-0.775 -1.529,-0.641 -1.147,-0.481 -0.41,-0.172 A 4.966,4.966 0 0 0 21.359,77.39 c -0.3,-0.111 -0.532,-0.413 -0.698,-0.679 -0.285,-0.455 -0.474,-0.981 -0.652,-1.485 a 16.222,16.222 0 0 1 -0.475,-1.6 14.018,14.018 0 0 1 -0.387,-2.749 c -0.034,-0.868 -0.078,-1.794 0.139,-2.641 0.062,-0.241 0.147,-0.486 0.322,-0.663 0.393,-0.398 0.819,-0.04 1.228,0.132 l 1.336,0.56 1.842,0.772 2.602,1.091 L 50,79.932 a 3.355,3.355 0 0 0 3.713,-0.753 L 74.97,57.408 76.941,55.39 78.088,54.216 Z m 2.04,-7.5 -5.789,5.929 -1.971,2.018 -20.531,21.026 a 0.743,0.743 0 0 1 -0.822,0.167 l -22.428,-9.403 -2.602,-1.091 -4.913,-2.06 a 0.738,0.738 0 0 1 -0.4,-0.963 l 0.042,-0.086 a 0.729,0.729 0 0 1 0.113,-0.159 L 49.118,34.776 a 0.74,0.74 0 0 1 0.822,-0.167 l 29.943,12.554 a 0.74,0.74 0 0 1 0.442,0.539 0.735,0.735 0 0 1 -0.197,0.668 z"
   id="path3" />
<path
   fill="#c33737"
   d="m 45.032,57.32 -1.821,-4.671 -7.283,0.927 c -0.648,0.083 -1.036,-0.385 -0.649,-0.782 l 18.81,-19.28 11.119,4.573 -18.81,19.28 c -0.387,0.397 -1.204,0.369 -1.366,-0.047 z"
   style="fill:#c33737"
   id="path4" />
<path
   fill="#333"
   d="M 80.659,35.49 A 0.74,0.74 0 0 0 80.217,34.951 L 50.274,22.397 a 0.741,0.741 0 0 0 -0.822,0.167 l -28.29,28.972 c -0.249,0.255 -0.221,0.553 -0.197,0.669 0.024,0.116 0.114,0.401 0.442,0.539 l 4.913,2.06 2.602,1.091 22.428,9.403 a 0.743,0.743 0 0 0 0.822,-0.167 l 20.531,-21.026 1.971,-2.018 5.789,-5.929 a 0.74,0.74 0 0 0 0.196,-0.668 z"
   style="fill:#333333"
   id="path5" />
<path
   fill="#e0e0e0"
   d="M 75.304,45.196 54.048,66.964 a 3.351,3.351 0 0 1 -3.713,0.753 L 26.951,57.913 24.349,56.822 22.507,56.05 21.171,55.49 c -0.408,-0.171 -0.834,-0.53 -1.228,-0.132 -0.175,0.177 -0.26,0.422 -0.322,0.663 -0.217,0.847 -0.173,1.773 -0.139,2.641 0.036,0.926 0.169,1.848 0.387,2.749 0.131,0.541 0.29,1.075 0.475,1.6 0.178,0.505 0.367,1.03 0.652,1.485 0.167,0.266 0.399,0.568 0.698,0.679 0.068,0.025 0.135,0.051 0.202,0.079 l 0.41,0.172 1.147,0.481 1.529,0.641 1.849,0.775 2.106,0.883 2.3,0.964 2.431,1.019 2.5,1.048 2.505,1.05 2.447,1.026 2.327,0.975 2.143,0.898 a 3648.545,3648.545 0 0 0 4.699,1.969 l 0.78,0.327 0.281,0.118 a 0.742,0.742 0 0 0 0.822,-0.167 L 78.423,50.55 V 42 l -1.147,1.174 z"
   style="fill:#e0e0e0"
   id="path6" />
<path
   d="M 82.339,37.992 A 3.364,3.364 0 0 0 83.23,34.968 3.366,3.366 0 0 0 81.231,32.531 L 51.288,19.978 a 3.354,3.354 0 0 0 -3.713,0.753 l -0.421,0.431 -1.955,2.002 -3.184,3.261 -4.008,4.105 -4.427,4.534 -4.441,4.548 -4.049,4.146 -3.252,3.33 c -0.922,0.944 -1.845,1.788 -2.587,2.903 -0.511,0.767 -0.825,1.563 -1.143,2.424 a 17.888,17.888 0 0 0 -0.621,2.043 16.491,16.491 0 0 0 -0.415,2.697 c -0.125,1.819 0.069,3.65 0.542,5.41 0.377,1.401 0.858,2.836 1.789,3.974 0.443,0.542 0.915,0.948 1.567,1.175 0.178,0.062 0.351,0.147 0.525,0.22 l 3.455,1.449 5.02,2.105 5.776,2.422 5.723,2.4 4.862,2.038 3.192,1.338 0.812,0.34 a 3.355,3.355 0 0 0 3.713,-0.753 L 82.339,50.3 A 3.369,3.369 0 0 0 81.232,44.84 L 81.046,44.762 V 39.32 Z m -3.918,5.667 v 6.895 l -26.25,26.883 a 0.742,0.742 0 0 1 -0.822,0.167 l -0.281,-0.118 -0.78,-0.327 -1.215,-0.509 -1.587,-0.665 -1.897,-0.795 -2.143,-0.898 -2.327,-0.975 -2.447,-1.026 -2.505,-1.05 -2.5,-1.048 -2.431,-1.019 -2.3,-0.964 -2.106,-0.883 -1.849,-0.775 -1.529,-0.641 -1.147,-0.481 -0.41,-0.172 A 4.966,4.966 0 0 0 21.693,65.179 C 21.393,65.068 21.161,64.766 20.995,64.5 20.71,64.045 20.521,63.519 20.343,63.015 a 16.222,16.222 0 0 1 -0.475,-1.6 14.018,14.018 0 0 1 -0.387,-2.749 c -0.034,-0.868 -0.078,-1.794 0.139,-2.641 0.062,-0.241 0.147,-0.486 0.322,-0.663 0.393,-0.398 0.819,-0.04 1.228,0.132 l 1.336,0.56 1.842,0.772 2.602,1.091 23.384,9.804 a 3.355,3.355 0 0 0 3.713,-0.753 L 75.303,45.2 l 1.971,-2.018 1.147,-1.174 z m 2.041,-7.501 -5.789,5.929 -1.971,2.018 -20.531,21.026 a 0.743,0.743 0 0 1 -0.822,0.167 l -22.428,-9.403 -2.602,-1.091 -4.913,-2.06 a 0.738,0.738 0 0 1 -0.4,-0.963 l 0.042,-0.086 a 0.729,0.729 0 0 1 0.113,-0.159 L 49.452,22.564 a 0.74,0.74 0 0 1 0.822,-0.167 l 29.943,12.554 a 0.74,0.74 0 0 1 0.442,0.539 0.738,0.738 0 0 1 -0.197,0.668 z"
   id="path7" />
<path
   fill="#c33737"
   d="m 45.365,45.109 -1.821,-4.671 -7.283,0.927 c -0.648,0.083 -1.036,-0.385 -0.649,-0.782 l 18.81,-19.28 11.119,4.573 -18.81,19.28 c -0.387,0.396 -1.204,0.368 -1.366,-0.047 z"
   style="fill:#c33737"
   id="path8" />
<path
   fill="#333"
   d="M 80.325,23.277 A 0.74,0.74 0 0 0 79.883,22.738 L 49.94,10.184 a 0.741,0.741 0 0 0 -0.822,0.167 l -28.29,28.972 a 0.737,0.737 0 0 0 -0.197,0.669 0.74,0.74 0 0 0 0.442,0.539 l 4.913,2.06 2.602,1.091 22.428,9.403 a 0.743,0.743 0 0 0 0.822,-0.167 l 20.531,-21.026 1.971,-2.018 5.789,-5.929 a 0.736,0.736 0 0 0 0.196,-0.668 z"
   style="fill:#333333"
   id="path9" />
<path
   fill="#e0e0e0"
   d="M 74.97,32.983 53.714,54.751 a 3.351,3.351 0 0 1 -3.713,0.753 L 26.617,45.7 24.015,44.609 22.173,43.837 20.837,43.277 c -0.408,-0.171 -0.834,-0.53 -1.228,-0.132 -0.175,0.177 -0.26,0.422 -0.322,0.663 -0.217,0.847 -0.173,1.773 -0.139,2.641 0.036,0.926 0.169,1.848 0.387,2.749 0.131,0.541 0.29,1.075 0.475,1.6 0.178,0.505 0.367,1.03 0.652,1.485 0.167,0.266 0.399,0.568 0.698,0.679 0.068,0.025 0.135,0.051 0.202,0.079 l 0.41,0.172 1.147,0.481 1.529,0.641 1.849,0.775 2.106,0.883 2.3,0.964 2.431,1.019 2.5,1.048 2.505,1.05 2.447,1.026 2.327,0.975 2.143,0.898 a 3648.545,3648.545 0 0 0 4.699,1.969 l 0.78,0.327 0.281,0.118 A 0.742,0.742 0 0 0 51.838,65.22 L 78.089,38.337 v -8.55 l -1.147,1.174 z"
   style="fill:#e0e0e0"
   id="path10" />
<path
   d="m 82.005,25.779 a 3.364,3.364 0 0 0 0.891,-3.024 3.366,3.366 0 0 0 -1.999,-2.437 L 50.955,7.765 a 3.354,3.354 0 0 0 -3.713,0.753 l -0.421,0.431 -1.955,2.002 -3.184,3.261 -4.008,4.105 -4.427,4.534 -4.441,4.548 -4.049,4.146 -3.252,3.33 c -0.922,0.944 -1.845,1.788 -2.587,2.903 -0.511,0.767 -0.825,1.563 -1.143,2.424 a 17.888,17.888 0 0 0 -0.621,2.043 16.491,16.491 0 0 0 -0.415,2.697 c -0.125,1.819 0.069,3.65 0.542,5.41 0.377,1.401 0.858,2.836 1.789,3.974 0.443,0.542 0.915,0.948 1.567,1.175 0.178,0.062 0.351,0.147 0.525,0.22 l 3.455,1.449 5.02,2.105 5.776,2.422 5.723,2.4 4.862,2.038 3.192,1.338 0.812,0.34 A 3.355,3.355 0 0 0 53.715,67.06 L 82.006,38.087 a 3.369,3.369 0 0 0 -1.107,-5.46 l -0.186,-0.078 v -5.442 z m -3.917,5.667 v 6.895 L 51.837,65.224 a 0.742,0.742 0 0 1 -0.822,0.167 l -0.281,-0.118 -0.78,-0.327 -1.215,-0.509 -1.587,-0.665 -1.897,-0.795 -2.143,-0.898 -2.327,-0.975 -2.447,-1.026 -2.505,-1.05 -2.5,-1.048 -2.431,-1.019 -2.3,-0.964 -2.106,-0.883 -1.849,-0.775 -1.529,-0.641 -1.147,-0.481 -0.41,-0.172 a 4.966,4.966 0 0 0 -0.202,-0.079 c -0.3,-0.111 -0.532,-0.413 -0.698,-0.679 -0.285,-0.455 -0.474,-0.981 -0.652,-1.485 a 16.222,16.222 0 0 1 -0.475,-1.6 14.018,14.018 0 0 1 -0.387,-2.749 c -0.034,-0.868 -0.078,-1.794 0.139,-2.641 0.062,-0.241 0.147,-0.486 0.322,-0.663 0.393,-0.398 0.819,-0.04 1.228,0.132 l 1.336,0.56 1.842,0.772 2.602,1.091 L 50,55.508 a 3.355,3.355 0 0 0 3.713,-0.753 l 21.257,-21.772 1.971,-2.018 1.147,-1.174 z m 2.04,-7.501 -5.789,5.929 -1.971,2.018 -20.531,21.026 a 0.743,0.743 0 0 1 -0.822,0.167 l -22.428,-9.403 -2.602,-1.091 -4.913,-2.06 a 0.738,0.738 0 0 1 -0.4,-0.963 l 0.042,-0.086 a 0.729,0.729 0 0 1 0.113,-0.159 L 49.118,10.351 a 0.74,0.74 0 0 1 0.822,-0.167 l 29.943,12.554 a 0.74,0.74 0 0 1 0.442,0.539 0.735,0.735 0 0 1 -0.197,0.668 z"
   id="path11" />
<path
   d="m 28.62,62.068 -0.63,0.737 -1.172,1.199 v 12.489 l 5.525,-3.333 5.355,8.683 V 68.822 l 2.041,-2.182 z"
   fill="#f47e60"
   style="fill:#f47e60"
   id="path12" />
<path
   d="m 37.485,55.568 -2.131,2.237 -1.171,1.199 v 20.989 l 5.525,-3.333 5.354,8.683 V 63.822 l 3.542,-3.682 z"
   fill="#c33737"
   style="fill:#c33737"
   id="path13" />
<metadata
   id="metadata13"><d:name
   style="animation-play-state:paused">encyclopedia</d:name>
<d:tags
   style="animation-play-state:paused">books,literature,bookmark,tag,works,read,textbook,shelf,library,series,encyclopedia,books</d:tags>
<d:license
   style="animation-play-state:paused">pro</d:license>
<d:slug
   style="animation-play-state:paused">ymgabq</d:slug></metadata></g><!-- generated by https://loading.io/ --></svg>
